<?xml version="1.0" standalone="no"?>
<!DOCTYPE svg PUBLIC "-//W3C//DTD SVG 20010904//EN"
 "http://www.w3.org/TR/2001/REC-SVG-20010904/DTD/svg10.dtd">
<svg version="1.0" xmlns="http://www.w3.org/2000/svg"
 width="503.000000pt" height="503.000000pt" viewBox="0 0 503.000000 503.000000"
 preserveAspectRatio="xMidYMid meet">
<metadata>
Created by potrace 1.11, written by Peter Selinger 2001-2013
</metadata>
<g transform="translate(0.000000,503.000000) scale(0.100000,-0.100000)"
fill="#000000" stroke="none">
<path d="M1915 4537 l0 -332 180 0 c169 0 183 1 224 23 24 13 54 35 65 49 63
79 60 200 -8 268 -14 13 -21 27 -16 30 19 12 40 70 40 109 0 65 -36 125 -94
154 -46 24 -59 26 -220 28 l-171 2 0 -331z m261 165 c16 -11 23 -47 12 -66 -5
-9 -22 -16 -38 -16 -29 0 -30 2 -30 45 0 40 2 45 23 45 12 0 27 -4 33 -8z m35
-254 c27 -41 -3 -88 -57 -88 l-34 0 0 53 c0 30 2 56 6 59 9 9 76 -10 85 -24z"/>
<path d="M1403 4437 c1 -47 -6 -53 -60 -51 -45 2 -49 0 -48 -21 0 -36 23 -55
66 -55 28 0 39 -4 39 -15 0 -11 -11 -15 -39 -15 -40 0 -42 -3 -27 -47 7 -21
24 -29 50 -24 5 1 13 -4 17 -11 10 -16 -28 -25 -83 -20 l-38 4 0 117 c0 78 -4
121 -12 129 -8 8 -54 12 -140 12 l-128 0 0 -282 c0 -273 1 -282 21 -304 l21
-23 -26 -56 c-14 -30 -32 -63 -41 -71 -8 -8 -15 -19 -15 -23 0 -11 50 -61 61
-61 13 0 64 73 84 120 11 25 24 48 29 52 6 4 3 15 -8 27 -19 21 -19 21 12 21
18 0 31 -3 30 -7 -2 -10 57 -132 76 -156 11 -15 18 -16 39 -6 28 13 27 22 -10
82 -36 58 -46 87 -28 87 8 0 15 -8 15 -18 0 -23 30 -52 53 -52 14 0 17 -10 17
-56 0 -52 -3 -61 -38 -98 -20 -22 -47 -53 -58 -68 -16 -20 -31 -27 -65 -30
-39 -3 -44 -6 -44 -28 0 -14 6 -30 15 -37 12 -10 13 -15 3 -30 -86 -128 -195
-375 -218 -495 -2 -11 -6 -27 -9 -36 -6 -18 -10 -41 -27 -142 -14 -81 -19
-320 -8 -391 4 -30 10 -72 13 -94 5 -39 23 -129 30 -150 1 -5 6 -23 10 -40 29
-113 126 -333 187 -422 16 -23 29 -46 29 -51 0 -6 3 -12 8 -14 4 -2 33 -37 64
-78 84 -112 229 -250 358 -341 145 -102 393 -213 550 -245 14 -3 44 -9 67 -14
89 -20 155 -25 333 -24 247 1 415 33 620 119 162 68 342 183 465 297 l40 38 8
-43 c4 -23 11 -49 14 -57 3 -8 6 -18 5 -21 -3 -18 34 -36 56 -28 24 9 24 15 2
114 -21 94 -21 98 12 134 16 18 33 30 37 25 7 -11 48 -34 58 -34 15 0 93 108
134 185 l41 76 -27 29 c-27 28 -27 30 -12 63 79 165 131 331 158 502 16 102
16 366 0 470 -36 235 -126 471 -249 658 -42 64 -44 72 -34 99 6 16 8 36 5 44
-7 19 -73 52 -94 47 -8 -2 -33 16 -56 39 -176 186 -385 326 -613 411 -91 34
-219 70 -285 81 -87 15 -113 19 -145 22 -56 5 -272 5 -310 -1 -19 -2 -57 -7
-85 -11 -121 -14 -315 -72 -448 -133 -38 -17 -71 -31 -73 -31 -2 0 -2 11 0 24
8 46 -15 61 -96 61 -61 0 -73 3 -76 18 -3 15 8 17 115 17 116 0 119 1 120 22
3 39 -24 58 -82 58 -40 0 -52 3 -52 16 0 10 9 15 26 14 63 -4 68 -2 63 30 -5
35 -30 52 -67 46 -17 -3 -25 0 -25 10 0 10 14 14 59 14 l59 0 -2 31 c-3 38
-19 49 -73 49 -31 0 -43 4 -43 14 0 8 4 18 10 21 6 4 5 13 -3 25 -8 14 -23 20
-49 20 -38 0 -38 0 -38 -40 0 -22 -4 -40 -10 -41 -5 0 -31 -1 -57 -2 -49 -1
-61 12 -40 41 16 20 -12 42 -53 42 -36 0 -37 -1 -37 -33z m-206 -124 l-2 -48
-55 0 -54 0 -3 48 -2 47 59 0 59 0 -2 -47z m403 -17 c0 -20 -106 -21 -114 -1
-4 12 5 15 54 15 44 0 60 -4 60 -14z m0 -105 c0 -14 -9 -16 -57 -13 -32 2 -59
5 -61 7 -12 12 14 21 62 22 46 1 56 -2 56 -16z m-405 -53 l1 -48 -56 3 -55 2
-2 45 -2 46 57 -1 57 0 0 -47z m208 -38 c88 0 98 -2 95 -17 -3 -15 -15 -18
-83 -18 l-80 0 -3 -107 c-2 -94 -5 -106 -22 -111 -10 -3 -21 -2 -24 1 -3 3 -6
66 -6 141 0 105 3 132 12 123 8 -8 47 -12 111 -12z m-206 -132 l0 -48 -58 0
-58 0 1 43 c0 23 2 44 3 48 2 3 28 5 57 5 l54 0 1 -48z m301 4 c-5 -26 -88
-25 -88 2 0 7 18 12 46 13 37 1 45 -1 42 -15z m172 -2 c0 -17 -7 -18 -77 -11
-7 0 -13 7 -13 14 0 9 15 13 45 13 35 0 45 -3 45 -16z m-170 -104 c0 -17 -23
-23 -62 -18 -48 7 -34 32 17 32 32 0 45 -4 45 -14z m-60 -105 c0 -5 -7 -11
-15 -15 -9 -3 -15 0 -15 9 0 8 7 15 15 15 8 0 15 -4 15 -9z"/>
<path d="M3258 1011 c-15 -28 -15 -31 1 -45 10 -9 21 -16 26 -16 16 0 181 -74
215 -97 43 -29 44 -29 65 3 16 25 16 27 -6 50 -12 13 -26 24 -31 24 -5 0 -25
11 -46 23 -29 19 -191 87 -204 87 -2 0 -10 -13 -20 -29z"/>
<path d="M3904 887 c-107 -210 -326 -389 -582 -472 l-51 -17 28 -42 c38 -55
61 -75 61 -52 0 9 6 16 13 16 6 0 56 20 109 44 226 102 397 253 508 449 36 64
34 71 -26 106 l-34 20 -26 -52z"/>
<path d="M2547 826 c-2 -6 -3 -155 -3 -331 l1 -320 105 0 105 0 0 124 -1 123
23 -28 c25 -31 107 -148 136 -195 19 -28 20 -29 108 -29 78 0 89 2 89 18 1 31
1 627 1 639 -1 8 -31 12 -104 11 l-102 -1 0 -124 c1 -67 -1 -123 -4 -123 -3 0
-45 56 -94 124 l-87 124 -84 0 c-53 -1 -86 -5 -89 -12z"/>
</g>
</svg>
